<svg width="32" height="32" viewBox="0 0 32 32" fill="none" xmlns="http://www.w3.org/2000/svg">
<path d="M20.9562 2H10.0426C7.91012 2.0025 5.86568 2.85082 4.35789 4.3589C2.85012 5.86694 2.00214 7.91138 2 10.0438V20.9574C2.0025 23.0899 2.85082 25.1343 4.35885 26.6422C5.86694 28.1499 7.91138 28.9978 10.0438 29H20.9574C23.0899 28.9975 25.1343 28.1491 26.6422 26.6411C28.1499 25.1331 28.9978 23.0886 29 20.9562V10.0426C28.9975 7.91012 28.1491 5.86568 26.6411 4.35782C25.1331 2.85012 23.0886 2.00214 20.9562 2ZM26.2845 20.9562C26.2845 21.6558 26.1466 22.3486 25.8788 22.9952C25.6111 23.6416 25.2186 24.2291 24.7237 24.7237C24.2291 25.2186 23.6416 25.6111 22.9952 25.8788C22.3486 26.1466 21.6558 26.2845 20.9562 26.2845H10.0426C8.62958 26.2842 7.27472 25.7226 6.27572 24.7234C5.27672 23.7242 4.71548 22.369 4.71548 20.9562V10.0426C4.71584 8.62958 5.27744 7.27472 6.27662 6.27572C7.2758 5.27672 8.63102 4.71548 10.0438 4.71548H20.9574C22.3704 4.71584 23.7253 5.27744 24.7243 6.27662C25.7233 7.2758 26.2845 8.63102 26.2845 10.0438V20.9562Z" fill="#070F26"/>
<path d="M15.4982 9C13.7754 9.00268 12.1238 9.68829 10.9057 10.9067C9.68763 12.125 9.00235 13.7765 9 15.4994C9.00201 17.2227 9.6873 18.8747 10.9057 20.0933C12.1242 21.3119 13.7761 21.9977 15.4993 22C17.2228 21.998 18.8752 21.3124 20.0938 20.0938C21.3125 18.875 21.998 17.2228 22 15.4994C21.9973 13.7762 21.3114 12.1243 20.0924 10.9062C18.8737 9.68796 17.2214 9.00168 15.4982 9ZM15.4982 19.4722C14.4448 19.4722 13.4346 19.0538 12.6898 18.3091C11.9449 17.5641 11.5265 16.554 11.5265 15.5006C11.5265 14.4474 11.9449 13.437 12.6898 12.6923C13.4346 11.9475 14.4448 11.529 15.4982 11.529C16.5514 11.529 17.5617 11.9475 18.3065 12.6923C19.0513 13.437 19.4698 14.4474 19.4698 15.5006C19.4698 16.554 19.0513 17.5641 18.3065 18.3091C17.5617 19.0538 16.5514 19.4722 15.4982 19.4722Z" fill="#070F26"/>
<path d="M22.5 10C23.3284 10 24 9.3284 24 8.50008C24 7.6716 23.3284 7 22.5 7C21.6716 7 21 7.6716 21 8.50008C21 9.3284 21.6716 10 22.5 10Z" fill="#070F26"/>
</svg>
